<?xml version="1.0" encoding="UTF-8"?>
<svg id="Layer_2" data-name="Layer 2" xmlns="http://www.w3.org/2000/svg" viewBox="0 0 113.39 84.24">
  <defs>
    <style>
      .cls-1 {
        fill: #be1e2d;
      }

      .cls-2 {
        fill: #d3d2c2;
      }

      .cls-3 {
        fill: #231f20;
      }
    </style>
  </defs>
  <g id="Layer_1-2" data-name="Layer 1">
    <g>
      <polygon class="cls-1" points="4.49 65.96 7.92 65.96 7.92 54.36 12.41 54.36 12.41 51.67 0 51.67 0 54.36 4.49 54.36 4.49 65.96 4.49 65.96"/>
      <path class="cls-1" d="m27.24,65.96c-.88-1.25-3.45-4.96-3.45-4.96-.24.02-.58.03-.85.03h-1.05v4.93h-3.46v-14.29h5.56c3.21,0,5.52,1.48,5.52,4.67,0,1.6-.77,2.99-2.31,3.86,0,0,4.09,5.53,4.27,5.76h-4.23Zm-4.18-7.34c2.04,0,2.91-.85,2.91-2.2,0-1.44-.59-2.04-2.43-2.04h-1.66v4.25h1.17Z"/>
      <polygon class="cls-1" points="36.77 65.96 40.21 65.96 40.21 51.67 36.77 51.67 36.77 65.96 36.77 65.96"/>
      <path class="cls-1" d="m47.83,65.96h5.24c5.15,0,8.23-2.24,8.23-7.2s-3.4-7.1-8.35-7.1h-5.11v14.29h0Zm3.42-2.69v-8.92h1.64c3.44,0,4.97,1.54,4.97,4.61,0,2.81-1.27,4.31-4.57,4.31h-2.04Z"/>
      <polygon class="cls-1" points="67.24 65.96 77.09 65.96 77.09 63.28 70.68 63.28 70.68 60.04 76.18 60.04 76.18 57.53 70.68 57.53 70.68 54.36 76.63 54.36 76.63 51.67 67.24 51.67 67.24 65.96 67.24 65.96"/>
      <polygon class="cls-1" points="83.13 65.96 86.57 65.96 86.57 58.3 86.49 56.4 91.97 65.96 96.07 65.96 96.07 51.67 92.63 51.67 92.63 59.88 92.73 61.48 87.11 51.67 83.13 51.67 83.13 65.96 83.13 65.96"/>
      <polygon class="cls-1" points="105.46 65.96 108.9 65.96 108.9 54.36 113.39 54.36 113.39 51.67 100.97 51.67 100.97 54.36 105.46 54.36 105.46 65.96 105.46 65.96"/>
      <path class="cls-3" d="m30.02,84.1h1.49v-3.42h3.19v3.42h1.49v-7.98h-1.49v3.26h-3.19v-3.26h-1.49v7.98h0Zm13.35.14c1.58,0,3.19-1.05,3.19-2.95v-2.4c0-1.78-1.51-2.91-3.25-2.91-1.58,0-3.19,1.05-3.19,2.94v2.55c0,1.78,1.51,2.75,3.25,2.75h0Zm0-1.32c-.94,0-1.77-.55-1.77-1.51v-2.55c0-1.14.95-1.55,1.71-1.55.94,0,1.77.55,1.77,1.51v2.56c0,1.14-.95,1.55-1.71,1.55h0Zm8.78,1.18h1.48v-6.71h2.3v-1.28h-6.07v1.28h2.3v6.71h0Zm7.4,0h5.59v-1.31h-4.1v-2.11h3.6v-1.31h-3.6v-1.95h4.05v-1.31h-5.54v7.98h0Zm9.52,0h5.37v-1.31h-3.89v-6.68h-1.49v7.98h0Zm11.6.12c1.76,0,3.07-.97,3.07-2.44s-.87-1.99-1.82-2.22l-1.37-.34c-.63-.17-1.17-.43-1.17-.99,0-.72.63-1.01,1.28-1.01.77,0,1.36.28,1.67.95l1.29-.5c-.36-1.16-1.57-1.7-2.9-1.7-1.55,0-2.79.87-2.79,2.37,0,1.41.85,1.89,1.91,2.16l1.34.33c.62.18,1.1.45,1.1,1.04,0,.74-.76,1.05-1.57,1.05-.9,0-1.62-.44-1.93-1.21l-1.34.53c.41,1.35,1.76,1.97,3.22,1.97h0Z"/>
      <polygon class="cls-2" points="36.68 20.94 48.64 20.94 48.64 32.9 36.68 32.9 36.68 20.94 36.68 20.94"/>
      <polygon class="cls-3" points="36.68 13.96 48.64 13.96 48.64 18.94 36.68 18.94 36.68 13.96 36.68 13.96"/>
      <polygon class="cls-3" points="36.68 34.9 48.64 34.9 48.64 39.88 36.68 39.88 36.68 34.9 36.68 34.9"/>
      <polygon class="cls-3" points="64.6 0 76.56 0 76.56 11.97 64.6 11.97 64.6 0 64.6 0"/>
      <polygon class="cls-2" points="64.6 13.96 76.56 13.96 76.56 39.88 64.6 39.88 64.6 13.96 64.6 13.96"/>
      <polygon class="cls-1" points="36.68 0 62.6 0 62.6 39.88 50.64 39.88 50.64 11.96 36.68 11.96 36.68 0 36.68 0"/>
    </g>
  </g>
</svg>